<?xml version="1.0" standalone="no"?>
<!DOCTYPE svg PUBLIC "-//W3C//DTD SVG 20010904//EN"
 "http://www.w3.org/TR/2001/REC-SVG-20010904/DTD/svg10.dtd">
<svg version="1.0" xmlns="http://www.w3.org/2000/svg"
 width="1080.000000pt" height="1080.000000pt" viewBox="0 0 1080.000000 1080.000000"
 preserveAspectRatio="xMidYMid meet">

<g transform="translate(0.000000,1080.000000) scale(0.100000,-0.100000)"
fill="#000000" stroke="none">
<path d="M0 5400 l0 -5400 5400 0 5400 0 0 5400 0 5400 -5400 0 -5400 0 0
-5400z m5328 1343 l-3 -398 -43 -3 -43 -3 46 -51 46 -51 -1 -423 c-1 -233 -5
-426 -9 -428 -3 -2 -39 27 -79 66 l-72 70 0 327 0 328 -76 81 c-42 45 -80 82
-85 82 -5 0 -9 -136 -9 -325 0 -179 -3 -325 -8 -325 -4 0 -40 33 -80 73 l-72
72 0 616 0 615 -42 24 c-96 53 -108 50 225 50 l307 0 -2 -397z m642 392 c0 -3
-25 -19 -55 -36 l-55 -31 0 -119 0 -119 -80 0 -80 0 0 75 0 75 -85 0 -85 0 0
-240 0 -240 165 0 165 0 0 -334 0 -334 -239 -226 c-132 -124 -242 -226 -246
-226 -3 0 -4 141 -3 313 l3 312 78 3 77 3 0 -131 c0 -73 4 -130 9 -128 4 2 43
35 85 75 l76 71 0 221 0 221 -162 2 -163 3 -3 398 -2 397 300 0 c165 0 300 -2
300 -5z m-2379 -2325 c41 0 59 -35 59 -112 0 -96 -19 -118 -99 -118 l-55 0 39
-40 c32 -33 46 -40 77 -40 38 0 38 0 38 -40 l0 -40 -53 0 c-52 0 -53 0 -132
80 -53 53 -87 80 -102 80 -22 0 -23 -3 -23 -80 l0 -80 -40 0 -40 0 0 195 0
194 143 3 c78 2 148 2 155 1 8 -2 22 -3 33 -3z m929 -35 l0 -35 -155 0 -155 0
0 -40 0 -40 121 0 c168 0 188 -13 189 -123 0 -59 -3 -71 -25 -92 -24 -25 -27
-25 -195 -25 l-170 0 0 40 0 40 155 0 155 0 0 40 0 40 -129 0 c-115 0 -131 2
-155 21 -24 19 -26 27 -26 92 0 40 4 77 8 84 20 32 57 38 220 35 l162 -3 0
-34z m440 -1 l0 -33 -157 -3 -158 -3 -3 -37 -3 -37 158 -3 158 -3 3 -37 3 -38
-160 0 -161 0 0 -40 0 -40 160 0 160 0 0 -40 0 -40 -173 0 c-235 0 -231 -4
-225 219 2 109 6 133 21 148 15 15 42 19 185 23 92 3 173 3 180 1 6 -2 12 -18
12 -37z m1730 -142 c0 -192 -4 -212 -39 -212 -9 0 -73 57 -143 127 l-128 128
0 -128 0 -127 -40 0 -40 0 2 193 3 192 24 3 c19 3 49 -21 152 -124 l129 -129
0 127 0 127 33 4 c17 2 35 5 40 5 4 1 7 -83 7 -186z m-2600 143 l0 -35 -160 0
-160 0 0 -40 0 -39 158 -3 157 -3 3 -37 3 -38 -160 0 -161 0 0 -40 0 -40 160
0 160 0 0 -40 0 -40 -173 0 c-235 0 -231 -4 -225 220 4 178 -6 170 224 170
l174 0 0 -35z m980 -120 l0 -155 160 0 160 0 0 -40 0 -40 -169 0 c-165 0 -171
1 -198 24 l-28 24 -3 171 -4 171 41 0 41 0 0 -155z m750 120 l0 -35 -75 0 -75
0 0 -120 0 -120 75 0 75 0 0 -40 0 -40 -195 0 -195 0 0 40 0 40 80 0 81 0 -3
118 -3 117 -77 3 -78 3 0 34 0 35 195 0 195 0 0 -35z m440 0 l0 -34 -157 -3
-158 -3 -3 -37 -3 -38 160 0 161 0 0 -40 0 -39 -157 -3 -158 -3 -3 -37 -3 -38
160 0 161 0 0 -40 0 -40 -169 0 c-165 0 -171 1 -198 24 -27 23 -28 28 -31 140
-8 227 -9 226 223 226 l175 0 0 -35z m870 0 l0 -35 -160 0 -160 0 0 -120 0
-120 160 0 160 0 0 -40 0 -40 -174 0 -174 0 -27 32 c-26 31 -26 32 -23 174 4
195 -9 184 220 184 l178 0 0 -35z m120 -40 l0 -75 115 0 115 0 0 75 0 75 40 0
40 0 0 -170 c0 -232 12 -220 -220 -220 l-170 0 0 40 0 40 155 0 155 0 0 40 0
40 -129 0 c-115 0 -131 2 -155 21 -25 19 -26 25 -26 115 l0 94 40 0 40 0 0
-75z"/>
<path d="M5000 6740 l0 -240 85 0 85 0 0 240 0 240 -85 0 -85 0 0 -240z"/>
<path d="M3340 4700 l0 -40 121 0 120 0 -3 38 -3 37 -117 3 -118 3 0 -41z"/>
</g>
</svg>
